<svg width="20" height="18" viewBox="0 0 20 18" fill="none" xmlns="http://www.w3.org/2000/svg">
<path d="M8.16331 15.9387C8.13775 15.8707 8.12895 15.8129 8.13762 15.7661C8.14624 15.7197 8.11653 15.6812 8.0484 15.6515C7.98027 15.6218 7.94627 15.5983 7.94627 15.5815C7.94627 15.5645 7.89744 15.5517 7.79956 15.5433C7.70172 15.5348 7.65289 15.5304 7.65289 15.5304H7.48714H7.34686H3.67339C3.11218 15.5304 2.63169 15.3308 2.23198 14.9308C1.83236 14.5312 1.63257 14.0508 1.63257 13.4897V4.51005C1.63257 3.94883 1.83232 3.46853 2.23198 3.06886C2.63169 2.66915 3.11218 2.46923 3.67339 2.46923H7.75497C7.86555 2.46923 7.95248 2.4418 8.01641 2.3864C8.08008 2.33114 8.12252 2.24818 8.14387 2.13765C8.16514 2.02712 8.17796 1.92732 8.18225 1.83801C8.18645 1.7488 8.18439 1.63604 8.17582 1.5C8.16737 1.36401 8.16313 1.27899 8.16313 1.24481C8.16313 1.13429 8.1227 1.03882 8.04197 0.957863C7.96115 0.877269 7.86554 0.836838 7.75502 0.836838H3.67339C2.66158 0.836838 1.79631 1.19612 1.0777 1.91463C0.359279 2.63314 0 3.49828 0 4.51018V13.4897C0 14.5015 0.359279 15.3668 1.0777 16.0851C1.79631 16.8039 2.66158 17.1632 3.67339 17.1632H7.75515C7.86572 17.1632 7.95271 17.1354 8.01659 17.0804C8.08025 17.025 8.1227 16.9422 8.14405 16.8315C8.16532 16.7211 8.17814 16.6208 8.18243 16.5319C8.18663 16.4426 8.18457 16.33 8.17599 16.194C8.16746 16.0578 8.16331 15.9729 8.16331 15.9387Z" fill="#666666"/>
<path d="M19.7577 8.42603L12.819 1.4871C12.6575 1.32573 12.4661 1.24478 12.245 1.24478C12.0239 1.24478 11.8325 1.32573 11.6709 1.4871C11.5093 1.64869 11.4286 1.84021 11.4286 2.06118V5.73466H5.71435C5.49311 5.73466 5.30186 5.81561 5.14027 5.97697C4.97868 6.13857 4.89795 6.32996 4.89795 6.55105V11.4491C4.89795 11.6701 4.97868 11.8615 5.14027 12.023C5.30204 12.1843 5.49325 12.2655 5.71435 12.2655H11.4286V15.9389C11.4286 16.1598 11.5094 16.3514 11.671 16.5129C11.8325 16.6744 12.0239 16.7554 12.2451 16.7554C12.4661 16.7554 12.6575 16.6744 12.819 16.5129L19.7577 9.57424C19.9193 9.41251 20.0001 9.22139 20.0001 9.00025C20.0001 8.77919 19.9193 8.58763 19.7577 8.42603Z" fill="#666666"/>
</svg>
