<svg width="19" height="19" viewBox="0 0 19 19" fill="none" xmlns="http://www.w3.org/2000/svg">
<path d="M17.5271 11.9852C17.2658 11.9852 17.0541 12.1963 17.0541 12.4567V16.6426C17.0532 17.4234 16.4186 18.0562 15.6352 18.0569H2.36475C1.58143 18.0562 0.946824 17.4234 0.9459 16.6426V4.35722C0.946824 3.57658 1.58143 2.94381 2.36475 2.94289H6.56403C6.82526 2.94289 7.03698 2.73184 7.03698 2.47144C7.03698 2.21123 6.82526 2 6.56403 2H2.36475C1.05933 2.00147 0.00147797 3.05596 0 4.35722V16.6428C0.00147797 17.944 1.05933 18.9985 2.36475 19H15.6352C16.9407 18.9985 17.9985 17.944 18 16.6428V12.4567C18 12.1963 17.7883 11.9852 17.5271 11.9852Z" fill="black"/>
<path d="M17.8119 0.629021C16.9731 -0.209674 15.6132 -0.209674 14.7745 0.629021L6.25963 9.1431C6.20127 9.20145 6.15914 9.27378 6.13714 9.35319L5.01742 13.3953C4.97137 13.561 5.01816 13.7385 5.13972 13.8602C5.26146 13.9818 5.43894 14.0286 5.60468 13.9827L9.64714 12.8629C9.72656 12.8409 9.7989 12.7988 9.85725 12.7404L18.3719 4.22614C19.2094 3.38689 19.2094 2.02827 18.3719 1.18902L17.8119 0.629021ZM7.29956 9.4533L14.2683 2.485L16.5158 4.73227L9.54684 11.7006L7.29956 9.4533ZM6.85063 10.3541L8.64618 12.1496L6.1625 12.8377L6.85063 10.3541ZM17.697 3.55131L17.1908 4.05743L14.9432 1.80998L15.4495 1.30385C15.9154 0.837995 16.6709 0.837995 17.1368 1.30385L17.697 1.86385C18.1622 2.33027 18.1622 3.08508 17.697 3.55131Z" fill="black"/>
</svg>
