<svg width="304" height="264" viewBox="0 0 304 264" fill="none" xmlns="http://www.w3.org/2000/svg">
<g clip-path="url(#clip0)">
<path d="M152.23 56.6895C150.118 58.2644 147.81 59.5345 145.371 60.4651C144.739 60.712 144.097 60.9391 143.452 61.1432H114.859C114.735 60.9161 114.612 60.6922 114.489 60.4651C112.017 55.8863 109.754 51.1264 109.122 45.9484C108.379 39.8586 110.462 32.9624 115.611 29.9702C116.286 29.5789 117 29.2665 117.741 29.0386C118.048 28.9431 118.361 28.8641 118.677 28.795C120.607 28.3489 122.617 28.4462 124.499 29.0768C126.381 29.7075 128.067 30.8488 129.386 32.3834C130.704 33.918 131.606 35.7905 131.998 37.8084C132.391 39.8262 132.261 41.9167 131.621 43.8647C135.986 39.2036 135.171 31.6457 133.666 25.3288C132.158 19.0086 130.331 11.9807 133.401 6.30564C135.104 3.14885 138.104 1.18696 141.467 0.400238C141.571 0.377195 141.676 0.354144 141.777 0.331102C145.787 -0.513044 149.955 0.247406 153.45 2.46087C159.883 6.68421 163.189 14.6898 164.261 22.5341C165.99 35.1547 162.165 49.2369 152.23 56.6895Z" fill="#F2F2F2"/>
<path d="M121.007 32.8142C123.382 37.8416 124.14 43.5317 123.169 49.0426C122.412 53.2038 120.718 57.1186 118.225 60.465C118.054 60.6922 117.88 60.9193 117.7 61.1431H116.518C116.708 60.9193 116.894 60.6955 117.074 60.465C119.309 57.6489 120.936 54.3649 121.844 50.836C122.752 47.307 122.921 43.6159 122.337 40.0133C121.656 36.0294 120.081 32.2693 117.741 29.0386C118.048 28.9431 118.361 28.8641 118.677 28.7949C119.566 30.0601 120.346 31.4052 121.007 32.8142Z" fill="white"/>
<path d="M149.411 36.4615C149.157 39.245 148.515 41.9751 147.505 44.5658C146.573 46.858 145.318 48.9926 143.782 50.8991C140.585 54.7946 136.538 57.8336 131.979 59.7606C131.407 60.0107 130.825 60.2478 130.243 60.465C129.598 60.7086 128.949 60.9346 128.296 61.1431H124.775C125.638 60.9423 126.491 60.7185 127.338 60.465C129.431 59.8479 131.468 59.0428 133.426 58.0587C137.662 55.9682 141.34 52.8257 144.136 48.9076C147.135 44.5987 148.46 39.4142 148.684 34.144C148.86 28.4674 148.289 22.7923 146.987 17.2771C145.726 11.6526 143.807 6.21027 141.275 1.07171C141.218 0.955378 141.207 0.820844 141.243 0.695886C141.278 0.570928 141.359 0.465082 141.468 0.400194C141.512 0.367859 141.563 0.345095 141.616 0.333227C141.669 0.321359 141.724 0.320626 141.778 0.331064C141.83 0.346455 141.879 0.37356 141.92 0.410505C141.962 0.44745 141.995 0.493347 142.018 0.545014C142.331 1.18034 142.637 1.81566 142.931 2.45755C145.386 7.80901 147.194 13.4569 148.314 19.2719C149.399 24.881 149.98 30.7469 149.411 36.4615Z" fill="white"/>
<path d="M220.332 119.233C226.769 119.233 231.986 113.799 231.986 107.096C231.986 100.393 226.769 94.9596 220.332 94.9596C213.896 94.9596 208.678 100.393 208.678 107.096C208.678 113.799 213.896 119.233 220.332 119.233Z" fill="#2F2E41"/>
<path d="M217.568 258.591L212.465 258.591L210.038 238.094L217.569 238.094L217.568 258.591Z" fill="#A0616A"/>
<path d="M218.869 263.742L202.416 263.742V263.525C202.416 262.649 202.581 261.782 202.903 260.973C203.225 260.164 203.697 259.428 204.291 258.809C204.886 258.19 205.592 257.699 206.369 257.363C207.146 257.028 207.979 256.856 208.82 256.856H208.82L218.869 256.856L218.869 263.742Z" fill="#2F2E41"/>
<path d="M251.937 254.063L247.073 255.669L238.809 236.895L245.988 234.524L251.937 254.063Z" fill="#A0616A"/>
<path d="M254.673 258.563L238.989 263.742L238.926 263.536C238.671 262.701 238.578 261.822 238.649 260.95C238.721 260.077 238.958 259.228 239.345 258.45C239.732 257.672 240.262 256.982 240.906 256.418C241.549 255.854 242.293 255.427 243.094 255.162L243.095 255.162L252.674 251.999L254.673 258.563Z" fill="#2F2E41"/>
<path d="M217.142 253.171H212.777C212.337 253.171 211.911 253.01 211.574 252.716C211.237 252.422 211.01 252.014 210.933 251.563L200.527 177.524L231.518 178.622L251.447 246.613C251.519 246.882 251.534 247.164 251.492 247.439C251.45 247.715 251.352 247.977 251.204 248.21C251.056 248.442 250.862 248.639 250.635 248.787C250.408 248.935 250.153 249.03 249.887 249.066L244.262 251.286C243.864 251.336 243.461 251.252 243.113 251.045C242.764 250.838 242.49 250.519 242.329 250.136L217.957 192.632C217.898 192.494 217.795 192.381 217.665 192.313C217.535 192.246 217.387 192.227 217.245 192.261C217.103 192.295 216.978 192.38 216.89 192.5C216.801 192.621 216.756 192.769 216.762 192.92L219.013 251.141C219.024 251.404 218.983 251.666 218.893 251.912C218.804 252.157 218.668 252.382 218.493 252.571C218.318 252.761 218.108 252.911 217.876 253.015C217.644 253.118 217.394 253.171 217.142 253.171Z" fill="#2F2E41"/>
<path d="M220.539 120.893C226.185 120.893 230.762 116.126 230.762 110.247C230.762 104.367 226.185 99.6005 220.539 99.6005C214.893 99.6005 210.316 104.367 210.316 110.247C210.316 116.126 214.893 120.893 220.539 120.893Z" fill="#A0616A"/>
<path d="M219.17 186.013C213.882 186.013 207.525 184.622 200.703 180.18C200.352 179.951 200.083 179.608 199.939 179.204C199.794 178.8 199.782 178.357 199.903 177.945L206.597 155.394L206.513 137.045C206.772 134.109 207.915 131.334 209.78 129.117C211.646 126.899 214.137 125.353 216.897 124.7C217.018 124.671 217.141 124.643 217.264 124.615C219.341 124.138 221.498 124.195 223.548 124.782C225.599 125.369 227.481 126.467 229.032 127.983C230.622 129.512 231.836 131.416 232.572 133.536C233.307 135.656 233.542 137.929 233.258 140.163L231.571 167.118L233.859 180.62C233.931 181.028 233.874 181.45 233.698 181.823C233.522 182.195 233.235 182.499 232.88 182.689C228.621 184.894 223.926 186.032 219.17 186.013Z" fill="#6C63FF"/>
<path d="M211.64 164.441C211.43 164.342 211.213 164.261 210.991 164.198L204.441 143.812L207.757 139.895L202.735 133.91L196.217 140.25C195.69 140.762 195.337 141.438 195.211 142.177C195.085 142.916 195.192 143.677 195.517 144.347L206.102 166.178C205.635 166.963 205.408 167.878 205.452 168.801C205.496 169.724 205.809 170.611 206.349 171.344C206.889 172.077 207.631 172.622 208.475 172.906C209.319 173.189 210.227 173.198 211.076 172.932C211.926 172.665 212.677 172.136 213.231 171.414C213.784 170.691 214.114 169.811 214.175 168.889C214.236 167.967 214.026 167.048 213.574 166.253C213.121 165.459 212.447 164.827 211.64 164.441V164.441Z" fill="#A0616A"/>
<path d="M204.081 143.101L197.891 135.651C197.715 135.439 197.585 135.19 197.51 134.921C197.434 134.652 197.415 134.369 197.454 134.092C197.493 133.815 197.589 133.549 197.736 133.314C197.882 133.079 198.076 132.879 198.303 132.729L206.262 127.46C207.309 126.528 208.667 126.066 210.041 126.175C211.414 126.285 212.689 126.957 213.587 128.044C214.485 129.131 214.933 130.545 214.831 131.975C214.73 133.406 214.088 134.736 213.046 135.674L206.917 143.097C206.742 143.309 206.524 143.48 206.28 143.597C206.035 143.714 205.769 143.775 205.5 143.775C205.231 143.776 204.965 143.716 204.72 143.599C204.475 143.483 204.257 143.313 204.081 143.101V143.101Z" fill="#6C63FF"/>
<path d="M208.254 100.071C207.443 100.54 206.734 101.177 206.171 101.944C205.676 102.735 205.575 103.836 206.193 104.54C206.924 105.374 208.245 105.316 209.365 105.187L220.753 103.88L216.27 107.175L227.048 106.055C228.931 105.859 231.102 105.488 232.02 103.883C233.097 101.999 231.726 99.6611 230.088 98.2061C226.779 95.3449 222.541 93.9154 218.249 94.2123C213.983 94.5014 209.993 96.5085 207.123 99.8085L208.254 100.071Z" fill="#2F2E41"/>
<path d="M219.647 156.976H219.522V153.386C219.522 152.835 219.311 152.307 218.937 151.917C218.563 151.528 218.056 151.309 217.527 151.309H210.224C209.694 151.309 209.187 151.528 208.813 151.917C208.439 152.307 208.229 152.835 208.229 153.386V173.079C208.229 173.63 208.439 174.159 208.813 174.548C209.187 174.938 209.694 175.157 210.224 175.157H217.527C218.056 175.157 218.563 174.938 218.937 174.548C219.311 174.159 219.522 173.63 219.522 173.079V159.531H219.647L219.647 156.976Z" fill="#3F3D56"/>
<path d="M213.673 159.544C214.592 159.544 215.338 158.768 215.338 157.811C215.338 156.853 214.592 156.077 213.673 156.077C212.753 156.077 212.008 156.853 212.008 157.811C212.008 158.768 212.753 159.544 213.673 159.544Z" fill="white"/>
<path d="M215.283 162.638C215.513 162.663 215.739 162.707 215.962 162.77L231.504 148.624L230.542 143.498L237.78 140.975L240.33 149.876C240.536 150.595 240.512 151.364 240.263 152.068C240.013 152.772 239.551 153.373 238.946 153.78L219.22 167.051C219.242 167.975 218.994 168.883 218.508 169.657C218.023 170.43 217.322 171.031 216.501 171.379C215.679 171.728 214.775 171.808 213.909 171.608C213.042 171.409 212.255 170.939 211.651 170.262C211.047 169.585 210.655 168.733 210.528 167.819C210.401 166.904 210.544 165.971 210.938 165.143C211.333 164.316 211.959 163.633 212.736 163.185C213.512 162.738 214.401 162.547 215.283 162.638V162.638Z" fill="#A0616A"/>
<path d="M230.608 148.034C230.376 147.892 230.176 147.7 230.022 147.47C229.868 147.241 229.763 146.979 229.714 146.703L228.026 137.073C227.582 135.715 227.673 134.229 228.28 132.942C228.886 131.654 229.958 130.669 231.261 130.203C232.563 129.737 233.99 129.828 235.228 130.457C236.466 131.085 237.415 132.198 237.866 133.554L242.178 142.288C242.301 142.537 242.372 142.811 242.384 143.091C242.396 143.371 242.35 143.651 242.249 143.911C242.148 144.17 241.995 144.405 241.799 144.597C241.604 144.79 241.371 144.936 241.116 145.026L232.16 148.199C231.905 148.289 231.635 148.321 231.367 148.293C231.099 148.265 230.84 148.176 230.608 148.034Z" fill="#6C63FF"/>
<path d="M155.294 119.811H83.1245C81.3582 119.811 79.6643 120.542 78.4154 121.843C77.1665 123.143 76.4648 124.907 76.4648 126.747C76.4648 128.586 77.1665 130.35 78.4154 131.651C79.6643 132.951 81.3582 133.682 83.1245 133.682H147.864L153.142 142.13C153.255 142.318 153.413 142.473 153.599 142.58C153.785 142.688 153.995 142.745 154.208 142.745C154.336 142.746 154.463 142.727 154.586 142.689C154.855 142.61 155.091 142.442 155.258 142.209C155.426 141.976 155.514 141.692 155.51 141.402V133.677C157.257 133.618 158.911 132.847 160.117 131.529C161.322 130.211 161.981 128.453 161.953 126.633C161.924 124.814 161.21 123.079 159.965 121.803C158.719 120.526 157.042 119.811 155.294 119.811V119.811ZM155.294 132.789H154.649V141.402C154.65 141.498 154.62 141.592 154.565 141.67C154.51 141.747 154.432 141.804 154.343 141.831C154.255 141.859 154.16 141.855 154.073 141.822C153.986 141.788 153.912 141.726 153.862 141.644L148.335 132.789H83.1245C81.5862 132.789 80.1109 132.153 79.0232 131.02C77.9354 129.887 77.3244 128.351 77.3244 126.749C77.3244 125.147 77.9354 123.61 79.0232 122.478C80.1109 121.345 81.5862 120.709 83.1245 120.709H155.294C156.832 120.709 158.308 121.345 159.395 122.478C160.483 123.61 161.094 125.147 161.094 126.749C161.094 128.351 160.483 129.887 159.395 131.02C158.308 132.153 156.832 132.789 155.294 132.789Z" fill="#3F3D56"/>
<path d="M123.507 90.2886H6.65949C4.8938 90.2886 3.20043 91.0191 1.9519 92.3193C0.703365 93.6195 0.00195312 95.383 0.00195312 97.2218C0.00195312 99.0605 0.703365 100.824 1.9519 102.124C3.20043 103.424 4.8938 104.155 6.65949 104.155H7.73339V112.321C7.72903 112.611 7.81686 112.895 7.98321 113.128C8.14956 113.36 8.38512 113.53 8.65325 113.609C8.77769 113.646 8.9066 113.665 9.03615 113.665C9.24889 113.665 9.45823 113.609 9.64458 113.502C9.83093 113.395 9.9882 113.241 10.1017 113.054L15.6541 104.155H123.507C125.272 104.155 126.966 103.424 128.214 102.124C129.463 100.824 130.164 99.0605 130.164 97.2218C130.164 95.383 129.463 93.6195 128.214 92.3193C126.966 91.0191 125.272 90.2886 123.507 90.2886ZM123.507 103.262H15.1881L9.38164 112.564C9.3313 112.645 9.25711 112.707 9.17014 112.741C9.08318 112.774 8.9881 112.778 8.89913 112.75C8.81015 112.723 8.73205 112.666 8.67649 112.589C8.62092 112.512 8.59088 112.418 8.59085 112.321V103.262H6.6595C5.12121 103.262 3.64593 102.626 2.5582 101.493C1.47047 100.36 0.859385 98.8237 0.859385 97.2218C0.859385 95.6198 1.47047 94.0835 2.5582 92.9507C3.64593 91.8179 5.12121 91.1816 6.6595 91.1816H123.507C125.045 91.1816 126.52 91.8179 127.608 92.9507C128.696 94.0835 129.307 95.6198 129.307 97.2218C129.307 98.8237 128.696 100.36 127.608 101.493C126.52 102.626 125.045 103.262 123.507 103.262Z" fill="#CCCCCC"/>
<path d="M78.829 31.2348H6.65949C4.8938 31.2348 3.20043 31.9652 1.9519 33.2654C0.703372 34.5656 0.00195312 36.3291 0.00195312 38.1679C0.00195312 40.0066 0.703372 41.7701 1.9519 43.0703C3.20043 44.3705 4.8938 45.101 6.65949 45.101H7.73339V53.2673C7.72903 53.5574 7.81686 53.8409 7.98321 54.0738C8.14956 54.3066 8.38512 54.4756 8.65325 54.5546C8.77751 54.5935 8.90641 54.6139 9.03615 54.6153C9.24921 54.6147 9.45866 54.558 9.64498 54.4504C9.8313 54.3427 9.98842 54.1877 10.1017 53.9998L15.6541 45.101H78.829C80.5947 45.101 82.2881 44.3705 83.5366 43.0703C84.7851 41.7701 85.4866 40.0066 85.4866 38.1679C85.4866 36.3291 84.7851 34.5656 83.5366 33.2654C82.2881 31.9652 80.5947 31.2348 78.829 31.2348ZM78.829 44.2081H15.1881L9.38163 53.5143C9.33044 53.5946 9.25583 53.6557 9.16879 53.6884C9.08175 53.7211 8.9869 53.7239 8.89826 53.6962C8.80962 53.6685 8.73188 53.6118 8.67652 53.5346C8.62116 53.4574 8.59112 53.3636 8.59084 53.2673V44.2081H6.65949C5.1212 44.2081 3.64592 43.5717 2.55819 42.4389C1.47046 41.3062 0.859378 39.7698 0.859378 38.1679C0.859378 36.5659 1.47046 35.0296 2.55819 33.8968C3.64592 32.764 5.1212 32.1277 6.65949 32.1277H78.829C80.3673 32.1277 81.8426 32.764 82.9303 33.8968C84.0181 35.0296 84.6291 36.5659 84.6291 38.1679C84.6291 39.7698 84.0181 41.3062 82.9303 42.4389C81.8426 43.5717 80.3673 44.2081 78.829 44.2081Z" fill="#CCCCCC"/>
<path d="M155.294 60.7617H54.3426C52.5769 60.7617 50.8835 61.4922 49.635 62.7924C48.3865 64.0926 47.6851 65.856 47.6851 67.6948C47.6851 69.5336 48.3865 71.297 49.635 72.5973C50.8835 73.8975 52.5769 74.6279 54.3426 74.6279H146.191L153.142 85.7634C153.256 85.9513 153.413 86.1063 153.599 86.2139C153.785 86.3216 153.995 86.3783 154.208 86.3789C154.336 86.3778 154.464 86.3574 154.586 86.3182C154.855 86.2402 155.092 86.0715 155.259 85.8386C155.426 85.6057 155.515 85.3216 155.511 85.0309V74.6279C157.257 74.5689 158.911 73.7973 160.117 72.4796C161.322 71.1618 161.981 69.4035 161.953 67.5839C161.925 65.7644 161.21 64.0293 159.965 62.7531C158.719 61.4768 157.042 60.7616 155.294 60.7617V60.7617ZM155.294 73.735H154.649V85.0308C154.652 85.1276 154.624 85.2226 154.569 85.3005C154.514 85.3784 154.435 85.4346 154.345 85.46C154.257 85.4897 154.161 85.4879 154.074 85.4549C153.986 85.422 153.912 85.3597 153.862 85.2779L146.657 73.735H54.3426C52.8043 73.735 51.329 73.0986 50.2413 71.9659C49.1536 70.8331 48.5425 69.2968 48.5425 67.6948C48.5425 66.0928 49.1536 64.5565 50.2413 63.4237C51.329 62.291 52.8043 61.6546 54.3426 61.6546H155.294C156.832 61.6546 158.308 62.291 159.395 63.4237C160.483 64.5565 161.094 66.0928 161.094 67.6948C161.094 69.2968 160.483 70.8331 159.395 71.9659C158.308 73.0986 156.832 73.735 155.294 73.735H155.294Z" fill="#3F3D56"/>
<path d="M85.0583 130.55C86.9563 130.55 88.4949 128.948 88.4949 126.971C88.4949 124.995 86.9563 123.392 85.0583 123.392C83.1602 123.392 81.6216 124.995 81.6216 126.971C81.6216 128.948 83.1602 130.55 85.0583 130.55Z" fill="#6C63FF"/>
<path d="M95.3678 130.55C97.2659 130.55 98.8045 128.948 98.8045 126.971C98.8045 124.995 97.2659 123.392 95.3678 123.392C93.4698 123.392 91.9312 124.995 91.9312 126.971C91.9312 128.948 93.4698 130.55 95.3678 130.55Z" fill="#6C63FF"/>
<path d="M105.678 130.55C107.576 130.55 109.115 128.948 109.115 126.971C109.115 124.995 107.576 123.392 105.678 123.392C103.78 123.392 102.242 124.995 102.242 126.971C102.242 128.948 103.78 130.55 105.678 130.55Z" fill="#6C63FF"/>
<path d="M112.061 95.4511H18.1058C17.6389 95.4513 17.1912 95.6445 16.8611 95.9883C16.5309 96.3321 16.3454 96.7984 16.3452 97.2846V97.6053C16.3454 98.0916 16.5309 98.5578 16.8611 98.9016C17.1912 99.2455 17.6389 99.4387 18.1058 99.4389H112.061C112.527 99.438 112.975 99.2445 113.305 98.9008C113.635 98.5572 113.82 98.0914 113.821 97.6053V97.2846C113.82 96.7986 113.635 96.3328 113.305 95.9891C112.975 95.6454 112.527 95.452 112.061 95.4511Z" fill="#CCCCCC"/>
<path d="M75.7617 35.9507H9.72743C9.26075 35.9516 8.81343 36.1451 8.48343 36.4888C8.15344 36.8324 7.96766 37.2983 7.9668 37.7843V38.105C7.96766 38.591 8.15343 39.0569 8.48343 39.4005C8.81342 39.7442 9.26075 39.9376 9.72743 39.9385H75.7617C76.2284 39.9376 76.6757 39.7442 77.0057 39.4005C77.3357 39.0569 77.5215 38.591 77.5224 38.105V37.7843C77.5215 37.2983 77.3357 36.8324 77.0057 36.4888C76.6757 36.1451 76.2284 35.9516 75.7617 35.9507Z" fill="#CCCCCC"/>
<path d="M137.837 65.9241H71.8031C71.3364 65.925 70.8891 66.1185 70.5591 66.4622C70.2291 66.8058 70.0433 67.2717 70.0425 67.7577V68.0784C70.0433 68.5644 70.2291 69.0303 70.5591 69.3739C70.8891 69.7176 71.3364 69.911 71.8031 69.9119H137.837C138.304 69.9109 138.75 69.7172 139.08 69.3735C139.409 69.0297 139.594 68.564 139.594 68.0784V67.7577C139.594 67.2721 139.409 66.8063 139.08 66.4626C138.75 66.1189 138.304 65.9252 137.837 65.9241Z" fill="#6C63FF"/>
<path d="M303.584 264H145.002C144.891 264 144.785 263.954 144.707 263.873C144.629 263.792 144.585 263.682 144.585 263.567C144.585 263.452 144.629 263.341 144.707 263.26C144.785 263.179 144.891 263.133 145.002 263.133H303.584C303.694 263.133 303.8 263.179 303.878 263.26C303.956 263.341 304 263.452 304 263.567C304 263.682 303.956 263.792 303.878 263.873C303.8 263.954 303.694 264 303.584 264Z" fill="#3F3D56"/>
</g>
<defs>
<clipPath id="clip0">
<rect width="304" height="264" fill="white"/>
</clipPath>
</defs>
</svg>
