<svg width="19" height="18" viewBox="0 0 19 18" fill="none" xmlns="http://www.w3.org/2000/svg">
<path d="M4.33398 7.78125C5.77148 10.6875 7.88281 12.8906 10.668 14.3906L12.7793 12.1875C13.0788 11.875 13.4082 11.7969 13.7676 11.9531C14.8457 12.3281 15.9837 12.5156 17.1816 12.5156C17.4512 12.5156 17.6758 12.6094 17.8555 12.7969C18.0352 12.9844 18.125 13.2188 18.125 13.5V17.0156C18.125 17.2969 18.0352 17.5312 17.8555 17.7188C17.6758 17.9062 17.4512 18 17.1816 18C12.6895 18 8.84115 16.3438 5.63672 13.0312C2.46224 9.6875 0.875 5.67188 0.875 0.984375C0.875 0.703125 0.964844 0.46875 1.14453 0.28125C1.32422 0.09375 1.54883 0 1.81836 0H5.1875C5.45703 0 5.68164 0.09375 5.86133 0.28125C6.04102 0.46875 6.13086 0.703125 6.13086 0.984375C6.13086 2.23438 6.31055 3.42188 6.66992 4.54688C6.78971 4.95312 6.71484 5.29688 6.44531 5.57812L4.33398 7.78125Z" fill="#666666"/>
</svg>
