<svg width="6" height="9" viewBox="0 0 6 9" fill="none" xmlns="http://www.w3.org/2000/svg">
<path d="M5.92969 9H0.339844V8.2207L3.29297 4.93945C3.73047 4.44336 4.03125 4.04102 4.19531 3.73242C4.36328 3.41992 4.44727 3.09766 4.44727 2.76562C4.44727 2.32031 4.3125 1.95508 4.04297 1.66992C3.77344 1.38477 3.41406 1.24219 2.96484 1.24219C2.42578 1.24219 2.00586 1.39648 1.70508 1.70508C1.4082 2.00977 1.25977 2.43555 1.25977 2.98242H0.175781C0.175781 2.19727 0.427734 1.5625 0.931641 1.07812C1.43945 0.59375 2.11719 0.351562 2.96484 0.351562C3.75781 0.351562 4.38477 0.560547 4.8457 0.978516C5.30664 1.39258 5.53711 1.94531 5.53711 2.63672C5.53711 3.47656 5.00195 4.47656 3.93164 5.63672L1.64648 8.11523H5.92969V9Z" fill="white"/>
</svg>
