<svg width="18" height="21" viewBox="0 0 18 21" fill="none" xmlns="http://www.w3.org/2000/svg">
<path d="M15 18.9844V17.5781C15 16.6719 14.3125 15.9375 12.9375 15.375C11.5625 14.7812 10.25 14.4844 9 14.4844C7.75 14.4844 6.4375 14.7812 5.0625 15.375C3.6875 15.9375 3 16.6719 3 17.5781V18.9844H15ZM11.1094 7.875C10.5156 7.28125 9.8125 6.98438 9 6.98438C8.1875 6.98438 7.48437 7.28125 6.89062 7.875C6.29687 8.46875 6 9.17188 6 9.98438C6 10.7969 6.29687 11.5 6.89062 12.0938C7.48437 12.6875 8.1875 12.9844 9 12.9844C9.8125 12.9844 10.5156 12.6875 11.1094 12.0938C11.7031 11.5 12 10.7969 12 9.98438C12 9.17188 11.7031 8.46875 11.1094 7.875ZM9.70312 3.28125C9.51562 3.09375 9.28125 3 9 3C8.71875 3 8.48437 3.09375 8.29687 3.28125C8.10937 3.46875 8.01562 3.70312 8.01562 3.98438C8.01562 4.26562 8.10937 4.51562 8.29687 4.73438C8.48437 4.92188 8.71875 5.01562 9 5.01562C9.28125 5.01562 9.51562 4.92188 9.70312 4.73438C9.89062 4.51562 9.98437 4.26562 9.98437 3.98438C9.98437 3.70312 9.89062 3.46875 9.70312 3.28125ZM15.9844 3C16.5156 3 16.9844 3.20312 17.3906 3.60938C17.7969 4.01562 18 4.48438 18 5.01562V18.9844C18 19.5156 17.7969 19.9844 17.3906 20.3906C16.9844 20.7969 16.5156 21 15.9844 21H2.01562C1.48437 21 1.01562 20.7969 0.609375 20.3906C0.203125 19.9844 0 19.5156 0 18.9844V5.01562C0 4.48438 0.203125 4.01562 0.609375 3.60938C1.01562 3.20312 1.48437 3 2.01562 3H6.1875C6.40625 2.40625 6.76562 1.92188 7.26562 1.54688C7.76562 1.17188 8.34375 0.984375 9 0.984375C9.65625 0.984375 10.2344 1.17188 10.7344 1.54688C11.2344 1.92188 11.5937 2.40625 11.8125 3H15.9844Z" fill="#666666"/>
</svg>
