<svg width="24" height="12" viewBox="0 0 24 12" fill="none" xmlns="http://www.w3.org/2000/svg">
<path d="M5.57812 7.40625C5.98438 7.8125 6.45312 8.01562 6.98438 8.01562C7.51562 8.01562 7.98438 7.8125 8.39062 7.40625C8.79688 7 9 6.53125 9 6C9 5.46875 8.79688 5 8.39062 4.59375C7.98438 4.1875 7.51562 3.98438 6.98438 3.98438C6.45312 3.98438 5.98438 4.1875 5.57812 4.59375C5.20312 5 5.01562 5.46875 5.01562 6C5.01562 6.53125 5.20312 7 5.57812 7.40625ZM12.6562 3.98438H23.0156V8.01562H21V12H17.0156V8.01562H12.6562C12.25 9.20312 11.5312 10.1719 10.5 10.9219C9.46875 11.6406 8.29688 12 6.98438 12C5.32812 12 3.90625 11.4219 2.71875 10.2656C1.5625 9.07812 0.984375 7.65625 0.984375 6C0.984375 4.34375 1.5625 2.9375 2.71875 1.78125C3.90625 0.59375 5.32812 0 6.98438 0C8.29688 0 9.46875 0.375 10.5 1.125C11.5312 1.84375 12.25 2.79688 12.6562 3.98438Z" fill="#666666"/>
</svg>
