<svg width="24" height="18" viewBox="0 0 24 18" fill="none" xmlns="http://www.w3.org/2000/svg">
<path d="M21 14.5156V2.98438C19.9688 2.67188 18.7969 2.51562 17.4844 2.51562C15.4531 2.51562 13.625 3.01562 12 4.01562V15.5C13.625 14.5 15.4531 14 17.4844 14C18.7031 14 19.875 14.1719 21 14.5156ZM17.4844 0.5C19.8594 0.5 21.7031 1 23.0156 2V16.5781C23.0156 16.7031 22.9531 16.8281 22.8281 16.9531C22.7344 17.0469 22.625 17.0938 22.5 17.0938C22.4062 17.0938 22.3281 17.0781 22.2656 17.0469C20.9844 16.3594 19.3906 16.0156 17.4844 16.0156C15.4531 16.0156 13.625 16.5156 12 17.5156C10.6562 16.5156 8.82812 16.0156 6.51562 16.0156C4.82812 16.0156 3.23438 16.375 1.73438 17.0938C1.70312 17.0938 1.65625 17.1094 1.59375 17.1406C1.5625 17.1406 1.53125 17.1406 1.5 17.1406C1.375 17.1406 1.25 17.0938 1.125 17C1.03125 16.9062 0.984375 16.7969 0.984375 16.6719V2C2.32812 1 4.17188 0.5 6.51562 0.5C8.82812 0.5 10.6562 1 12 2C13.3438 1 15.1719 0.5 17.4844 0.5Z" fill="#666666"/>
</svg>
