<svg width="13" height="13" viewBox="0 0 13 13" fill="none" xmlns="http://www.w3.org/2000/svg">
<path d="M5.16253 0.909943C7.76616 0.909943 9.87681 3.0206 9.87681 5.62423C9.87681 6.77176 9.46681 7.82353 8.7853 8.64104L12.3227 12.1783C12.4901 12.3457 12.4901 12.6171 12.3227 12.7844C12.1739 12.9332 11.943 12.9497 11.776 12.834L11.7166 12.7844L8.17934 9.247C7.36183 9.92851 6.31006 10.3385 5.16253 10.3385C2.5589 10.3385 0.448242 8.22786 0.448242 5.62423C0.448242 3.0206 2.5589 0.909943 5.16253 0.909943ZM5.16253 1.76709C3.03229 1.76709 1.30539 3.49399 1.30539 5.62423C1.30539 7.75447 3.03229 9.48137 5.16253 9.48137C7.29277 9.48137 9.01967 7.75447 9.01967 5.62423C9.01967 3.49399 7.29277 1.76709 5.16253 1.76709Z" fill="#212121" fill-opacity="0.6"/>
</svg>
