<svg width="13" height="26" viewBox="0 0 13 26" fill="none" xmlns="http://www.w3.org/2000/svg">
<path d="M11.25 6H13V19.3984C13 21.1849 12.3802 22.7161 11.1406 23.9922C9.90104 25.2318 8.38802 25.8516 6.60156 25.8516C4.8151 25.8516 3.28385 25.2318 2.00781 23.9922C0.768229 22.7161 0.148438 21.1849 0.148438 19.3984V4.85156C0.148438 3.57552 0.604167 2.48177 1.51562 1.57031C2.46354 0.622396 3.57552 0.148438 4.85156 0.148438C6.1276 0.148438 7.22135 0.622396 8.13281 1.57031C9.04427 2.48177 9.5 3.57552 9.5 4.85156V17.1016C9.5 17.9036 9.20833 18.5964 8.625 19.1797C8.07812 19.7266 7.40365 20 6.60156 20C5.79948 20 5.10677 19.7266 4.52344 19.1797C3.9401 18.5964 3.64844 17.9036 3.64844 17.1016V6H5.39844V17.1016C5.39844 17.4297 5.50781 17.7031 5.72656 17.9219C5.98177 18.1406 6.27344 18.25 6.60156 18.25C6.92969 18.25 7.20312 18.1406 7.42187 17.9219C7.64062 17.7031 7.75 17.4297 7.75 17.1016V4.85156C7.75 4.04948 7.45833 3.35677 6.875 2.77344C6.32812 2.1901 5.65365 1.89844 4.85156 1.89844C4.04948 1.89844 3.35677 2.1901 2.77344 2.77344C2.1901 3.35677 1.89844 4.04948 1.89844 4.85156V19.3984C1.89844 20.6745 2.35417 21.7865 3.26562 22.7344C4.21354 23.6458 5.32552 24.1016 6.60156 24.1016C7.8776 24.1016 8.97135 23.6458 9.88281 22.7344C10.7943 21.7865 11.25 20.6745 11.25 19.3984V6Z" fill="#757575"/>
</svg>
