<svg width="24" height="24" viewBox="0 0 24 24" fill="none" xmlns="http://www.w3.org/2000/svg">
<path d="M7.95312 14.3516C8.86458 15.8828 10.2135 16.6484 12 16.6484C13.7865 16.6484 15.1354 15.8828 16.0469 14.3516H17.9609C17.487 15.5547 16.7031 16.5391 15.6094 17.3047C14.5521 18.0339 13.349 18.3984 12 18.3984C10.651 18.3984 9.42969 18.0339 8.33594 17.3047C7.27865 16.5391 6.51302 15.5547 6.03906 14.3516H7.95312ZM5.38281 18.6172C7.24219 20.4401 9.44792 21.3516 12 21.3516C14.5521 21.3516 16.7396 20.4401 18.5625 18.6172C20.4219 16.7578 21.3516 14.5521 21.3516 12C21.3516 9.44792 20.4219 7.26042 18.5625 5.4375C16.7396 3.57812 14.5521 2.64844 12 2.64844C9.44792 2.64844 7.24219 3.57812 5.38281 5.4375C3.5599 7.26042 2.64844 9.44792 2.64844 12C2.64844 14.5521 3.5599 16.7578 5.38281 18.6172ZM3.74219 3.79688C6.03906 1.5 8.79167 0.351562 12 0.351562C15.2083 0.351562 17.9427 1.5 20.2031 3.79688C22.5 6.05729 23.6484 8.79167 23.6484 12C23.6484 15.2083 22.5 17.9609 20.2031 20.2578C17.9427 22.5182 15.2083 23.6484 12 23.6484C8.79167 23.6484 6.03906 22.5182 3.74219 20.2578C1.48177 17.9609 0.351562 15.2083 0.351562 12C0.351562 8.79167 1.48177 6.05729 3.74219 3.79688ZM6.64062 10.3594C6.3125 9.99479 6.14844 9.57552 6.14844 9.10156C6.14844 8.6276 6.3125 8.22656 6.64062 7.89844C7.00521 7.53385 7.42448 7.35156 7.89844 7.35156C8.3724 7.35156 8.77344 7.53385 9.10156 7.89844C9.46615 8.22656 9.64844 8.6276 9.64844 9.10156C9.64844 9.57552 9.46615 9.99479 9.10156 10.3594C8.77344 10.6875 8.3724 10.8516 7.89844 10.8516C7.42448 10.8516 7.00521 10.6875 6.64062 10.3594ZM14.8437 10.3594C14.5156 9.99479 14.3516 9.57552 14.3516 9.10156C14.3516 8.6276 14.5156 8.22656 14.8437 7.89844C15.2083 7.53385 15.6276 7.35156 16.1016 7.35156C16.5755 7.35156 16.9766 7.53385 17.3047 7.89844C17.6693 8.22656 17.8516 8.6276 17.8516 9.10156C17.8516 9.57552 17.6693 9.99479 17.3047 10.3594C16.9766 10.6875 16.5755 10.8516 16.1016 10.8516C15.6276 10.8516 15.2083 10.6875 14.8437 10.3594Z" fill="#757575"/>
</svg>
