<svg width="113" height="101" viewBox="0 0 113 101" fill="none" xmlns="http://www.w3.org/2000/svg">
<path d="M87.6608 100.694H84.7943C84.4597 100.693 84.1388 100.56 83.9021 100.324C83.6655 100.088 83.5324 99.7677 83.532 99.4337V75.5913C83.5324 75.2573 83.6655 74.9371 83.9021 74.7009C84.1388 74.4647 84.4597 74.3319 84.7943 74.3315H87.6608C87.9955 74.3319 88.3163 74.4647 88.553 74.7009C88.7896 74.9371 88.9227 75.2573 88.9231 75.5913V99.4337C88.9227 99.7677 88.7896 100.088 88.553 100.324C88.3163 100.56 87.9955 100.693 87.6608 100.694Z" fill="#6C63FF"/>
<path d="M91.7878 68.6706L89.5454 66.8887C89.4257 66.7936 89.2884 66.7229 89.1413 66.6807C88.9942 66.6386 88.8403 66.6257 88.6882 66.6429C88.5362 66.6602 88.389 66.7071 88.2552 66.7811C88.1213 66.855 88.0033 66.9546 87.908 67.0741L73.027 85.7261C72.9317 85.8456 72.8609 85.9826 72.8186 86.1294C72.7764 86.2762 72.7635 86.4299 72.7807 86.5816C72.798 86.7333 72.845 86.8802 72.9191 87.0138C72.9933 87.1474 73.093 87.2651 73.2127 87.3603L73.2736 87.4086L80.5125 98.8717C80.5941 99.0009 80.7004 99.1128 80.8253 99.201C80.9502 99.2892 81.0914 99.352 81.2406 99.3858C81.3898 99.4195 81.5443 99.4237 81.6951 99.3979C81.8459 99.3721 81.9902 99.3169 82.1196 99.2355L84.5446 97.7102C84.8061 97.5458 84.9914 97.2844 85.0597 96.9836C85.1281 96.6829 85.0739 96.3673 84.9091 96.1064L78.9354 86.6469L91.9736 70.3047C92.0689 70.1852 92.1397 70.0482 92.182 69.9014C92.2242 69.7546 92.2371 69.601 92.2198 69.4492C92.2026 69.2975 92.1556 69.1506 92.0814 69.017C92.0073 68.8834 91.9076 68.7657 91.7878 68.6706Z" fill="#6C63FF"/>
<path d="M89.5678 82.8788H75.7791C75.3414 82.8783 74.9218 82.7045 74.6124 82.3957C74.3029 82.0868 74.1288 81.6681 74.1283 81.2313V77.9364C74.1288 77.4997 74.3029 77.0809 74.6124 76.7721C74.9218 76.4632 75.3414 76.2895 75.7791 76.289H89.5678C90.0054 76.2895 90.425 76.4632 90.7345 76.7721C91.044 77.0809 91.218 77.4997 91.2186 77.9364V81.2313C91.218 81.6681 91.044 82.0868 90.7345 82.3957C90.425 82.7045 90.0054 82.8783 89.5678 82.8788Z" fill="#CCCCCC"/>
<path d="M113 100.566H50.0704V101H113V100.566Z" fill="#3F3D56"/>
<path d="M84.7103 46.4581C90.4507 46.4581 95.1042 41.814 95.1042 36.0852C95.1042 30.3563 90.4507 25.7122 84.7103 25.7122C78.97 25.7122 74.3165 30.3563 74.3165 36.0852C74.3165 41.814 78.97 46.4581 84.7103 46.4581Z" fill="#6C63FF"/>
<path d="M95.4188 78.2974H74.0439C73.7092 78.297 73.3883 78.1641 73.1517 77.9279C72.915 77.6918 72.7819 77.3715 72.7815 77.0375L77.056 55.2124C77.0613 53.3416 77.8094 51.5492 79.1365 50.228C80.4635 48.9067 82.2613 48.1643 84.1358 48.1634H85.523C87.4 48.1655 89.1996 48.9106 90.5269 50.2352C91.8541 51.5598 92.6007 53.3558 92.6028 55.2291L96.6795 77.0198C96.6815 77.1864 96.6503 77.3519 96.5879 77.5065C96.5255 77.6611 96.4331 77.8019 96.3159 77.9206C96.1987 78.0394 96.0591 78.1339 95.9051 78.1985C95.7511 78.2632 95.5859 78.2968 95.4188 78.2974Z" fill="#2F2E41"/>
<path d="M76.6088 39.5486C75.9666 39.5306 75.1672 39.5083 74.5523 39.0595C74.369 38.9204 74.2184 38.743 74.1111 38.5397C74.0037 38.3364 73.9422 38.1122 73.9308 37.8827C73.9197 37.7195 73.9465 37.556 74.0092 37.405C74.0719 37.2539 74.1687 37.1193 74.2921 37.0118C74.6138 36.7406 75.0832 36.6771 75.589 36.8255L75.0648 33.0022L75.4498 32.9496L76.0658 37.4444L75.7445 37.2971C75.3718 37.1265 74.8605 37.0397 74.5429 37.3078C74.4648 37.3779 74.404 37.465 74.3652 37.5623C74.3264 37.6596 74.3106 37.7645 74.3191 37.8689C74.3285 38.0398 74.3747 38.2066 74.4544 38.358C74.5342 38.5094 74.6458 38.6419 74.7814 38.7465C75.2599 39.0957 75.8972 39.1408 76.6198 39.161L76.6088 39.5486Z" fill="#2F2E41"/>
<path d="M79.7648 33.332H77.6729V33.7196H79.7648V33.332Z" fill="#2F2E41"/>
<path d="M65.077 69.4617L66.9119 71.6593C67.3239 72.1528 68.0587 72.2194 68.5531 71.8083L86.9065 56.5452C87.4009 56.1341 87.4677 55.4008 87.0557 54.9074L85.2207 52.7097C84.8087 52.2163 84.074 52.1496 83.5796 52.5608L65.2262 67.8238C64.7318 68.235 64.665 68.9683 65.077 69.4617Z" fill="#6C63FF"/>
<path d="M87.9742 56.0902L80.4041 63.2695C80.168 63.4934 79.8546 63.618 79.5289 63.6174C79.2032 63.6168 78.8902 63.4911 78.6549 63.2664L75.2302 59.9953C75.0949 59.8661 74.99 59.7085 74.923 59.534C74.856 59.3595 74.8286 59.1723 74.8427 58.986C74.8569 58.7997 74.9123 58.6188 75.0048 58.4563C75.0974 58.2939 75.2249 58.1539 75.3782 58.0465L84.356 51.7555C84.6143 51.5413 84.9472 51.438 85.2816 51.4683C85.6161 51.4985 85.925 51.6597 86.1406 51.9167L88.1366 54.3073C88.3517 54.5653 88.4554 54.898 88.4249 55.2322C88.3945 55.5665 88.2324 55.8751 87.9742 56.0902Z" fill="#2F2E41"/>
<path d="M85.2643 25.5789C84.8266 23.5824 85.3669 21.4724 86.5378 19.8185C87.7307 18.1334 89.5986 17.0066 91.5796 16.4922C95.4196 15.4951 99.4967 16.8873 102.341 19.5442C105.41 22.4113 106.779 26.5797 106.582 30.7178C106.382 34.9134 104.573 38.8526 101.858 42.0204C100.521 43.5722 99.0006 44.9562 97.3295 46.1421C96.5053 46.7296 95.5409 47.4948 94.4803 47.5119C93.7118 47.5244 92.7296 47.0274 92.9319 46.1216C93.0015 45.8097 93.2209 45.471 93.5665 45.4302C93.9343 45.3868 93.9387 44.8049 93.5665 44.8488C92.6627 44.9553 92.1362 45.9322 92.381 46.7808C92.6517 47.7189 93.7419 48.1656 94.6471 48.0842C95.7946 47.9812 96.7805 47.2489 97.6867 46.599C98.5922 45.9515 99.457 45.249 100.276 44.4955C103.527 41.4975 106.038 37.593 106.868 33.2129C107.703 28.8005 106.88 24.0101 104.002 20.4708C101.391 17.2593 97.1925 15.1857 93.0063 15.645C90.8066 15.8863 88.6601 16.7815 87.0592 18.3277C86.2741 19.0831 85.6463 19.9858 85.2121 20.9841C84.7778 21.9824 84.5455 23.0566 84.5287 24.1448C84.5284 24.6791 84.5867 25.2118 84.7025 25.7335C84.7826 26.0988 85.3444 25.9442 85.2643 25.5789Z" fill="#2F2E41"/>
<path d="M86.6283 25.8865C86.5498 25.1734 86.6356 24.4518 86.8793 23.7769C87.1229 23.1019 87.5179 22.4915 88.0341 21.9922C88.5503 21.493 89.1739 21.118 89.8575 20.8961C90.541 20.6741 91.2664 20.611 91.9781 20.7115C92.3492 20.7582 92.3458 20.1763 91.9781 20.1301C91.1894 20.0296 90.3881 20.1079 89.6339 20.3592C88.8797 20.6105 88.1919 21.0282 87.6218 21.5814C87.0517 22.1346 86.6139 22.8089 86.341 23.5543C86.0682 24.2996 85.9672 25.0968 86.0456 25.8865C86.0812 26.2556 86.6641 26.2593 86.6283 25.8865Z" fill="#2F2E41"/>
<path d="M84.3135 23.5053C84.1057 23.5051 83.9047 23.5788 83.7464 23.7132C83.5882 23.8476 83.4831 24.0339 83.45 24.2387C83.4169 24.4434 83.458 24.6532 83.5659 24.8304C83.6738 25.0077 83.8414 25.1407 84.0387 25.2058H84.0389L86.8051 26.1173C87.0252 26.1898 87.2651 26.1721 87.4721 26.0681C87.6791 25.964 87.8362 25.7822 87.9089 25.5625C87.9816 25.3428 87.9638 25.1034 87.8596 24.8968C87.7553 24.6902 87.5731 24.5334 87.353 24.4609L84.5867 23.5493C84.4986 23.5202 84.4064 23.5054 84.3135 23.5053Z" fill="#2F2E41"/>
<path d="M30.2963 60.3851H30.2529C13.5715 60.3851 3.05176e-05 46.8408 3.05176e-05 30.1925C3.05176e-05 13.5443 13.5715 0 30.2532 0C46.9349 0 60.5066 13.5443 60.5066 30.1925C60.505 34.2762 59.6739 38.3172 58.0636 42.0714C56.4533 45.8255 54.0972 49.215 51.1376 52.035L57.2242 58.8442L56.9121 58.9763C51.8672 61.1112 46.7555 58.2009 44.6662 56.7433C40.2539 59.1301 35.3151 60.3818 30.2963 60.3851ZM30.2532 0.484849C13.8395 0.484849 0.485846 13.8117 0.485846 30.1925C0.485846 46.5733 13.8395 59.9003 30.2532 59.9003C35.2563 59.9045 40.1793 58.6475 44.5656 56.2459L44.6991 56.1725L44.8233 56.2608C46.72 57.6077 51.5864 60.4869 56.4058 58.6569L50.4601 52.0054L50.6331 51.8437C53.5956 49.0652 55.9567 45.7109 57.5712 41.9874C59.1857 38.2639 60.0193 34.2499 60.0207 30.1927C60.0207 13.8117 46.6671 0.484849 30.2532 0.484849Z" fill="#3F3D56"/>
<path d="M39.6226 25.2525C33.4141 25.188 27.2064 25.0772 20.9983 24.993C18.9286 24.9649 16.8589 24.9404 14.7891 24.9192C13.0058 24.9007 13.0012 22.1331 14.7891 22.1517C20.9976 22.2162 27.2053 22.327 33.4135 22.4111C35.4831 22.4392 37.5529 22.4638 39.6226 22.4849C41.406 22.5034 41.4105 25.2711 39.6226 25.2525Z" fill="#6C63FF"/>
<path d="M46.4241 31.71L21.332 31.4506L14.1957 31.3768C12.4123 31.3584 12.4078 28.5908 14.1957 28.6093L39.2878 28.8687L46.4241 28.9425C48.2075 28.9609 48.212 31.7285 46.4241 31.71Z" fill="#6C63FF"/>
<path d="M46.4241 38.1676L21.332 37.9082L14.1957 37.8344C12.4123 37.816 12.4078 35.0484 14.1957 35.0669L39.2878 35.3263L46.4241 35.4001C48.2075 35.4185 48.212 38.1861 46.4241 38.1676Z" fill="#6C63FF"/>
<path d="M60.3985 64.0676C61.3638 64.0676 62.1464 63.2867 62.1464 62.3233C62.1464 61.3599 61.3638 60.5789 60.3985 60.5789C59.4332 60.5789 58.6507 61.3599 58.6507 62.3233C58.6507 63.2867 59.4332 64.0676 60.3985 64.0676Z" fill="#E6E6E6"/>
</svg>
