<svg width="300" height="220" viewBox="0 0 300 220" fill="none" xmlns="http://www.w3.org/2000/svg">
<g clip-path="url(#clip0)">
<path d="M255.17 194.953C255.547 194.365 255.992 193.819 256.495 193.325C256.703 193.118 256.921 192.922 257.147 192.732C258.519 191.555 260.192 190.751 261.994 190.404C263.795 190.056 265.66 190.177 267.397 190.755C269.134 191.332 270.68 192.345 271.876 193.689C273.072 195.034 273.875 196.661 274.202 198.403C275.718 193 271.772 187.678 267.805 183.589C263.835 179.502 259.298 175.019 259.321 169.419C259.332 166.303 260.914 163.523 263.301 161.462C263.375 161.4 263.449 161.337 263.524 161.277C266.41 158.893 270.123 157.646 273.921 157.785C280.978 158.149 287.139 162.72 291.418 168.143C298.306 176.867 301.324 189.114 296.502 199.046C292.261 207.781 283.216 212.968 273.984 217.138C272.695 217.72 271.408 218.285 270.125 218.832C270.116 218.835 270.107 218.84 270.098 218.843C270.036 218.869 269.975 218.895 269.917 218.922C269.652 219.035 269.387 219.147 269.124 219.259L269.246 219.335L269.625 219.572C269.494 219.495 269.363 219.421 269.232 219.344C269.193 219.321 269.151 219.299 269.112 219.276C264.578 216.653 259.981 213.879 256.849 209.786C253.6 205.535 252.294 199.447 255.17 194.953Z" fill="#F1F1F1"/>
<path d="M285.42 185.082C286.424 187.284 287.09 189.614 287.396 192.001C287.637 194.129 287.546 196.28 287.127 198.382C286.227 202.702 284.263 206.751 281.402 210.187C279.243 212.796 276.75 215.131 273.984 217.138C272.695 217.72 271.408 218.285 270.124 218.832C270.116 218.835 270.107 218.84 270.098 218.843C270.036 218.869 269.975 218.895 269.917 218.922C269.652 219.035 269.387 219.147 269.124 219.259L269.246 219.335L269.625 219.572C269.494 219.495 269.363 219.421 269.232 219.344C269.193 219.321 269.151 219.299 269.112 219.276C270.11 215.911 270.257 212.366 269.54 208.936C268.823 205.506 267.264 202.291 264.993 199.562C262.71 196.867 259.798 194.73 256.495 193.325C256.703 193.118 256.921 192.923 257.147 192.732C258.419 193.295 259.637 193.966 260.787 194.736C264.899 197.475 267.987 201.418 269.593 205.98C271.027 210.119 271.206 214.567 270.109 218.8C270.337 218.657 270.565 218.51 270.788 218.363C275.011 215.618 278.904 212.321 281.836 208.277C284.365 204.86 285.984 200.896 286.549 196.734C287.111 192.187 285.931 187.716 283.825 183.659C281.499 179.319 278.569 175.306 275.115 171.731C271.646 168.057 267.724 164.807 263.436 162.052C263.339 161.989 263.271 161.893 263.246 161.783C263.221 161.673 263.241 161.558 263.301 161.462C263.347 161.375 263.427 161.308 263.524 161.277C263.573 161.265 263.624 161.264 263.674 161.274C263.723 161.283 263.77 161.304 263.81 161.333C264.34 161.674 264.865 162.017 265.383 162.371C269.701 165.318 273.623 168.771 277.058 172.65C280.378 176.39 283.399 180.544 285.42 185.082Z" fill="white"/>
<path d="M192.979 13.891C196.62 13.891 199.571 11.0465 199.571 7.53755C199.571 4.02863 196.62 1.1841 192.979 1.1841C189.339 1.1841 186.388 4.02863 186.388 7.53755C186.388 11.0465 189.339 13.891 192.979 13.891Z" fill="#F1F1F1"/>
<path d="M274.943 98.9152C277.162 98.9152 278.961 97.1809 278.961 95.0416C278.961 92.9023 277.162 91.168 274.943 91.168C272.723 91.168 270.924 92.9023 270.924 95.0416C270.924 97.1809 272.723 98.9152 274.943 98.9152Z" fill="#F1F1F1"/>
<path d="M157.326 109.543C159.546 109.543 161.345 107.809 161.345 105.67C161.345 103.53 159.546 101.796 157.326 101.796C155.107 101.796 153.308 103.53 153.308 105.67C153.308 107.809 155.107 109.543 157.326 109.543Z" fill="#F1F1F1"/>
<path d="M159.596 220H299.633C299.73 220 299.824 219.963 299.893 219.896C299.961 219.83 300 219.74 300 219.646C300 219.552 299.961 219.462 299.893 219.395C299.824 219.329 299.73 219.291 299.633 219.291H159.596C159.499 219.291 159.405 219.329 159.336 219.395C159.267 219.462 159.229 219.552 159.229 219.646C159.229 219.74 159.267 219.83 159.336 219.896C159.405 219.963 159.499 220 159.596 220Z" fill="#CBCBCB"/>
<path d="M284.179 34.2346C284.363 32.9763 284.061 31.6967 283.332 30.6382C282.602 29.5798 281.495 28.8161 280.22 28.4918C278.946 28.1675 277.592 28.3052 276.415 28.8787C275.239 29.4523 274.322 30.4219 273.837 31.6038L262.474 44.1605L265.808 53.1365L277.236 38.4644C277.982 38.6947 278.771 38.7645 279.548 38.6691C280.324 38.5736 281.07 38.3151 281.732 37.9118C282.394 37.5086 282.956 36.9703 283.379 36.335C283.802 35.6996 284.075 34.9827 284.179 34.2346Z" fill="#FFB7B7"/>
<path d="M237.074 83.093L274.796 44.2905L269.708 36.4938L222.396 75.0607L237.074 83.093Z" fill="#3F3D56"/>
<path d="M228.656 59.5169C235.963 59.5169 241.887 53.8069 241.887 46.7633C241.887 39.7197 235.963 34.0097 228.656 34.0097C221.348 34.0097 215.424 39.7197 215.424 46.7633C215.424 53.8069 221.348 59.5169 228.656 59.5169Z" fill="#2F2E41"/>
<path d="M229.72 39.5586C232.567 36.7757 236.013 34.6281 239.814 33.2671C242.254 32.3958 244.91 31.8575 247.461 32.3523C250.012 32.8471 252.424 34.5481 253.136 36.9605C253.718 38.9332 253.117 41.0572 252.214 42.9142C251.311 44.7712 250.105 46.4932 249.375 48.4195C248.629 50.3849 248.405 52.4987 248.723 54.5688C249.04 56.639 249.889 58.6 251.192 60.2738C252.495 61.9476 254.211 63.2812 256.184 64.1535C258.158 65.0259 260.326 65.4094 262.492 65.2692C259.986 65.5932 257.675 66.7285 255.225 67.3328C252.775 67.9371 249.884 67.8961 248.063 66.2044C246.137 64.4144 246.098 61.5042 246.191 58.9268C246.33 55.0954 246.468 51.2641 246.607 47.4326C246.677 45.4787 246.738 43.4621 246.007 41.6384C245.275 39.8147 243.538 38.2177 241.51 38.2343C239.972 38.2469 238.612 39.1445 237.379 40.0297C236.146 40.915 234.841 41.8595 233.31 41.9911C231.779 42.1228 230.03 41.0305 230.145 39.5529L229.72 39.5586Z" fill="#2F2E41"/>
<path d="M178.4 132.398C177.13 132.738 175.774 132.617 174.59 132.058C173.406 131.499 172.476 130.541 171.976 129.365C171.476 128.19 171.44 126.878 171.877 125.679C172.313 124.48 173.19 123.476 174.343 122.859L185.774 110.359L195.442 112.373L181.844 125.211C182.178 125.893 182.353 126.638 182.356 127.393C182.359 128.148 182.191 128.894 181.863 129.579C181.534 130.264 181.054 130.872 180.456 131.359C179.858 131.846 179.156 132.2 178.4 132.398H178.4Z" fill="#FFB7B7"/>
<path d="M216.008 87.6475L187.517 122.118L178.833 118.275L212.32 68.0236L216.008 87.6475Z" fill="#3F3D56"/>
<path d="M193.275 191.733L186.485 191.631L187.302 213.937H193.274L193.275 191.733Z" fill="#FFB7B7"/>
<path d="M194.798 212.058L183.036 212.058H183.036C181.048 212.058 179.141 212.819 177.736 214.174C176.33 215.529 175.54 217.366 175.54 219.282V219.517L194.798 219.518L194.798 212.058Z" fill="#2F2E41"/>
<path d="M238.233 185.817L230.815 190.407L245.653 207.612L250.679 204.502L238.233 185.817Z" fill="#FFB7B7"/>
<path d="M250.907 202.127L241.01 208.252L241.009 208.252C239.336 209.287 238.159 210.921 237.735 212.793C237.312 214.665 237.678 216.622 238.752 218.235L238.883 218.432L255.089 208.404L250.907 202.127Z" fill="#2F2E41"/>
<path d="M240.876 117.702C240.876 117.702 224.395 64.9417 219.099 64.2287C213.802 63.5157 205.268 77.7663 205.268 77.7663C194.204 91.3731 182.795 135.448 182.795 135.448C182.795 135.448 201.814 136.596 215.718 143.725C229.621 150.855 246.029 143.364 246.029 143.364L240.876 117.702Z" fill="#3F3D56"/>
<path opacity="0.1" d="M240.876 117.702C240.876 117.702 224.395 64.9417 219.099 64.2287C213.802 63.5158 207.436 77.911 207.436 77.911C201.923 99.8756 182.795 135.448 182.795 135.448C182.795 135.448 201.814 136.596 215.718 143.725C229.621 150.855 246.029 143.364 246.029 143.364L240.876 117.702Z" fill="black"/>
<path d="M227.355 101.916V128.428L230.592 166.832L246.764 195.882L239.045 201.196L216.992 173.563L208.27 146.125L194.572 206.864L184.28 206.156L191.428 121.942L204.991 98.2383L227.355 101.916Z" fill="#2F2E41"/>
<path d="M210.738 76.2736C205.592 81.2334 210.37 86.5474 210.37 86.5474L204.489 99.301L227.645 105.324L235.737 70.4714L230.224 64.8031C219.197 64.4488 219.191 64.2286 219.191 64.2286C217.259 66.0508 210.738 76.2736 210.738 76.2736Z" fill="#6C63FF"/>
<path d="M236.67 66.8607C235.618 66.1124 234.423 65.5728 233.153 65.2729C231.884 64.973 230.565 64.919 229.274 65.1138C227.982 65.3086 226.744 65.7485 225.63 66.408C224.516 67.0674 223.549 67.9333 222.785 68.9555C216.964 76.7679 211.581 89.383 218.997 105.116C230.906 130.379 241.268 143.311 245.481 143.31C245.665 143.311 245.848 143.284 246.023 143.228C248.616 142.38 252.365 138.151 253.044 134.424C253.287 133.09 253.229 131.231 251.574 129.955C246.819 126.29 238.284 114.877 235.621 99.8555C234.15 91.5551 237.004 83.9942 239.656 79.1132C240.777 77.0936 241.105 74.7523 240.58 72.5186C240.055 70.2849 238.712 68.3085 236.798 66.9515L236.67 66.8607Z" fill="#3F3D56"/>
<path d="M229.337 58.264C234.057 55.777 235.791 50.0728 233.211 45.5232C230.631 40.9737 224.713 39.3017 219.993 41.7887C215.273 44.2757 213.538 49.9799 216.118 54.5295C218.698 59.079 224.617 60.751 229.337 58.264Z" fill="#FFB7B7"/>
<path d="M210.966 49.3165H225.03L225.175 47.3702L225.896 49.3165H228.061L228.347 45.4591L229.776 49.3165H233.967V49.1254C233.964 46.4399 232.855 43.8652 230.885 41.9663C228.915 40.0673 226.244 38.9992 223.458 38.9961H221.475C218.689 38.9992 216.017 40.0673 214.047 41.9663C212.077 43.8652 210.969 46.4399 210.966 49.1254V49.3165Z" fill="#2F2E41"/>
<path d="M231.843 56.3123L237.845 54.4352V40.3865H226.508L226.788 40.6566C230.694 44.4157 235.037 57.7525 231.843 56.3123Z" fill="#2F2E41"/>
<path d="M146.272 143H22.7276C22.0045 142.999 21.3112 142.709 20.7998 142.194C20.2885 141.678 20.0008 140.979 20 140.25V67.7495C20.0008 67.0206 20.2884 66.3217 20.7998 65.8062C21.3111 65.2908 22.0045 65.0008 22.7276 65H146.272C146.996 65.0008 147.689 65.2908 148.2 65.8062C148.712 66.3217 148.999 67.0206 149 67.7495V140.25C148.999 140.979 148.711 141.678 148.2 142.194C147.689 142.709 146.996 142.999 146.272 143Z" fill="#E6E6E6"/>
<path d="M153 153H15V61.049C15.0009 60.2406 15.3202 59.4656 15.8878 58.894C16.4554 58.3224 17.225 58.0009 18.0277 58H149.972C150.775 58.0009 151.545 58.3224 152.112 58.894C152.68 59.4656 152.999 60.2406 153 61.049V153ZM15.6374 152.358H152.363V61.049C152.362 60.4108 152.11 59.7989 151.662 59.3477C151.214 58.8964 150.606 58.6426 149.972 58.6419H18.0277C17.394 58.6426 16.7864 58.8964 16.3383 59.3477C15.8902 59.7989 15.6381 60.4108 15.6374 61.049V152.358Z" fill="#463A3A"/>
<path d="M155.857 149.227H150.244V148.273C150.244 147.935 150.108 147.611 149.868 147.373C149.627 147.134 149.301 147 148.96 147H142.224C141.883 147 141.557 147.134 141.316 147.373C141.076 147.611 140.941 147.935 140.941 148.273V149.227H139.978V148.273C139.978 147.935 139.843 147.611 139.602 147.373C139.362 147.134 139.035 147 138.695 147H131.958C131.618 147 131.292 147.134 131.051 147.373C130.81 147.611 130.675 147.935 130.675 148.273V149.227H129.713V148.273C129.713 147.935 129.578 147.611 129.337 147.373C129.096 147.134 128.77 147 128.43 147H121.693C121.353 147 121.026 147.134 120.786 147.373C120.545 147.611 120.41 147.935 120.41 148.273V149.227H119.448V148.273C119.448 147.935 119.312 147.611 119.072 147.373C118.831 147.134 118.505 147 118.164 147H111.428C111.087 147 110.761 147.134 110.52 147.373C110.28 147.611 110.145 147.935 110.145 148.273V149.227H109.182V148.273C109.182 147.935 109.047 147.611 108.806 147.373C108.566 147.134 108.239 147 107.899 147H101.162C100.822 147 100.496 147.134 100.255 147.373C100.014 147.611 99.8792 147.935 99.8792 148.273V149.227H98.9168V148.273C98.9168 147.935 98.7816 147.611 98.541 147.373C98.3004 147.134 97.974 147 97.6337 147H90.897C90.5567 147 90.2303 147.134 89.9897 147.373C89.7491 147.611 89.6139 147.935 89.6139 148.273V149.227H88.6515V148.273C88.6515 147.935 88.5163 147.611 88.2757 147.373C88.035 147.134 87.7086 147 87.3683 147H80.6317C80.2914 147 79.965 147.134 79.7243 147.373C79.4837 147.611 79.3485 147.935 79.3485 148.273V149.227H78.3861V148.273C78.3861 147.935 78.2509 147.611 78.0103 147.373C77.7697 147.134 77.4433 147 77.103 147H70.3663C70.026 147 69.6996 147.134 69.459 147.373C69.2184 147.611 69.0832 147.935 69.0832 148.273V149.227H68.1208V148.273C68.1208 147.935 67.9856 147.611 67.745 147.373C67.5043 147.134 67.1779 147 66.8376 147H60.101C59.7607 147 59.4343 147.134 59.1937 147.373C58.953 147.611 58.8178 147.935 58.8178 148.273V149.227H57.8554V148.273C57.8554 147.935 57.7203 147.611 57.4796 147.373C57.239 147.134 56.9126 147 56.5723 147H49.8356C49.4953 147 49.1689 147.134 48.9283 147.373C48.6877 147.611 48.5525 147.935 48.5525 148.273V149.227H47.5901V148.273C47.5901 147.935 47.4549 147.611 47.2143 147.373C46.9736 147.134 46.6472 147 46.3069 147H39.5703C39.23 147 38.9036 147.134 38.663 147.373C38.4223 147.611 38.2871 147.935 38.2871 148.273V149.227H37.3248V148.273C37.3248 147.935 37.1896 147.611 36.9489 147.373C36.7083 147.134 36.3819 147 36.0416 147H29.305C28.9646 147 28.6383 147.134 28.3976 147.373C28.157 147.611 28.0218 147.935 28.0218 148.273V149.227H27.0594V148.273C27.0594 147.935 26.9242 147.611 26.6836 147.373C26.4429 147.134 26.1166 147 25.7762 147H19.0396C18.6993 147 18.3729 147.134 18.1323 147.373C17.8916 147.611 17.7564 147.935 17.7564 148.273V149.227H12.1426C9.7178 149.227 7.39235 150.183 5.67779 151.883C3.96323 153.584 3 155.89 3 158.295V158.295C3 159.013 3.28728 159.701 3.79864 160.208C4.31 160.715 5.00356 161 5.72673 161H162.273C162.996 161 163.69 160.715 164.201 160.208C164.713 159.701 165 159.013 165 158.295V158.295C165 155.89 164.037 153.584 162.322 151.883C160.608 150.183 158.282 149.227 155.857 149.227Z" fill="#3F3D56"/>
<path d="M84.5 124C95.8218 124 105 114.822 105 103.5C105 92.1782 95.8218 83 84.5 83C73.1782 83 64 92.1782 64 103.5C64 114.822 73.1782 124 84.5 124Z" fill="#6C63FF"/>
<path d="M83.0452 111C82.5782 111.001 82.1237 110.857 81.7501 110.591L81.7269 110.575L76.8489 107.029C76.6229 106.864 76.4333 106.659 76.2909 106.425C76.1484 106.191 76.0559 105.932 76.0187 105.664C75.9814 105.396 76.0001 105.123 76.0736 104.862C76.1472 104.601 76.2742 104.356 76.4474 104.141C76.6206 103.926 76.8366 103.746 77.0831 103.611C77.3296 103.475 77.6017 103.388 77.8839 103.352C78.1661 103.317 78.4529 103.334 78.7279 103.404C79.0029 103.474 79.2608 103.595 79.4867 103.759L82.6463 106.062L90.1126 96.8062C90.2858 96.5917 90.5017 96.4116 90.748 96.2763C90.9944 96.141 91.2664 96.0531 91.5485 96.0177C91.8306 95.9823 92.1173 96.0001 92.3922 96.0699C92.6671 96.1398 92.9248 96.2604 93.1507 96.4249L93.1513 96.4254L93.1049 96.4865L93.1525 96.4254C93.6081 96.7581 93.9062 97.249 93.9814 97.7903C94.0565 98.3316 93.9026 98.8791 93.5534 99.3127L84.7713 110.194C84.5682 110.445 84.3069 110.648 84.0079 110.787C83.7089 110.927 83.3801 110.998 83.0471 110.998L83.0452 111Z" fill="white"/>
</g>
<defs>
<clipPath id="clip0">
<rect width="300" height="220" fill="white"/>
</clipPath>
</defs>
</svg>
