<svg width="96" height="96" viewBox="0 0 96 96" fill="none" xmlns="http://www.w3.org/2000/svg">
<path d="M19.1549 67.1549C26.216 77.5211 35.831 82.7042 48 82.7042C60.169 82.7042 69.784 77.5211 76.8451 67.1549C76.6948 62.9484 73.3146 59.4178 66.7042 56.5634C60.0939 53.7089 53.8592 52.2817 48 52.2817C42.1408 52.2817 35.9061 53.7089 29.2958 56.5634C22.6854 59.2676 19.3052 62.7981 19.1549 67.1549ZM58.1408 18.7042C55.2864 15.8498 51.9061 14.4225 48 14.4225C44.0939 14.4225 40.7136 15.8498 37.8592 18.7042C35.0047 21.5587 33.5775 24.939 33.5775 28.8451C33.5775 32.7512 35.0047 36.1315 37.8592 38.9859C40.7136 41.8404 44.0939 43.2676 48 43.2676C51.9061 43.2676 55.2864 41.8404 58.1408 38.9859C60.9953 36.1315 62.4225 32.7512 62.4225 28.8451C62.4225 24.939 60.9953 21.5587 58.1408 18.7042ZM13.9718 14.1972C23.4366 4.73239 34.7793 0 48 0C61.2207 0 72.4883 4.73239 81.8028 14.1972C91.2676 23.5117 96 34.7793 96 48C96 61.2207 91.2676 72.5634 81.8028 82.0282C72.4883 91.3427 61.2207 96 48 96C34.7793 96 23.4366 91.3427 13.9718 82.0282C4.65728 72.5634 0 61.2207 0 48C0 34.7793 4.65728 23.5117 13.9718 14.1972Z" fill="#666666"/>
</svg>
